<svg xmlns="http://www.w3.org/2000/svg" width="135" height="34" viewBox="0 0 135 34"><g fill="none" fill-rule="evenodd" stroke="none" stroke-width="1"><g transform="translate(-77 -23)"><g><g><g transform="translate(77 23)"><g><path fill="#F09C96" fill-rule="nonzero" d="M15.583 34c2.796 0 5.384-.667 7.764-2s4.278-3.276 5.695-5.829c1.416-2.552 2.125-5.6 2.125-9.142 0-3.543-.709-6.6-2.125-9.172C27.625 5.286 25.727 3.333 23.347 2c-2.38-1.333-4.968-2-7.764-2C12.788 0 10.2.667 7.82 2S3.542 5.286 2.125 7.857C.708 10.43 0 13.486 0 17.03c0 3.542.708 6.59 2.125 9.142C3.542 28.724 5.44 30.667 7.82 32c2.38 1.333 4.968 2 7.763 2z"/><g stroke="#023A15" stroke-width="1.417" transform="translate(5.667 7.792)"><path d="M10.765.361A16.8 16.8 0 007.65.003C5.465-.04 3.498.38 2.011 1.163a2.01 2.01 0 00-.849.848C.382 3.498-.04 5.465.002 7.65a16.85 16.85 0 00.359 3.116c1.177 5.626 4.37 9.112 7.749 8.405 2.394-.501 4.482-2.726 4.79-6.27 3.544-.308 5.768-2.397 6.27-4.79.707-3.38-2.78-6.572-8.405-7.749z"/><path stroke-linecap="round" stroke-linejoin="round" d="M1.587 1.587L17.084 17.084"/><path stroke-linecap="round" stroke-linejoin="round" d="M13.8288926 1.61481764L11.7286843 11.728401 1.61439264 13.8286093"/><path stroke-linecap="round" stroke-linejoin="round" d="M8.8537718 0.0715009687L7.46756347 7.46791764 0.241146802 8.68412597"/></g></g><path fill="#FFF" fill-rule="nonzero" d="M45.819 29.945c1.58 0 2.852-.245 3.818-.736.966-.49 1.652-1.093 2.059-1.805.406-.713.609-1.438.609-2.174 0-.981-.295-1.733-.886-2.254-.59-.521-1.399-.828-2.426-.92l-5.083-.391c-.383-.03-.678-.119-.885-.264-.207-.146-.311-.357-.311-.633 0-.337.192-.583.575-.736.797.353 1.748.529 2.852.529 1.61 0 2.898-.36 3.864-1.081.966-.72 1.449-1.694 1.449-2.921 0-.644-.146-1.227-.437-1.748a3.686 3.686 0 00-1.265-1.311h2.392v-.575h-3.611c-.72-.23-1.518-.345-2.392-.345-1.043 0-1.963.165-2.76.495-.797.33-1.414.793-1.852 1.391-.437.598-.655 1.296-.655 2.093 0 .705.169 1.334.506 1.886.337.552.813 1.004 1.426 1.357-.567.184-1.05.564-1.449 1.139a3.223 3.223 0 00-.598 1.874c0 1.104.399 1.924 1.196 2.461-.521.153-.94.422-1.253.805-.315.383-.472.79-.472 1.219 0 .874.437 1.533 1.311 1.978.874.445 2.3.667 4.278.667zm.345-9.913c-.383 0-.663-.265-.84-.794-.176-.529-.264-1.368-.264-2.518 0-1.257.088-2.177.264-2.76.177-.583.457-.874.84-.874.383 0 .663.291.84.874.176.583.264 1.503.264 2.76 0 1.15-.088 1.99-.264 2.518-.177.53-.457.794-.84.794zm.782 8.97c-1.38 0-2.461-.26-3.243-.782-.782-.521-1.173-1.211-1.173-2.07 0-.2.023-.391.069-.575.307.107.606.169.897.184l5.106.483c.675.061 1.127.172 1.357.334a.76.76 0 01.345.655c0 .552-.299.985-.897 1.3-.598.314-1.418.471-2.461.471zM60.041 25v-.115c-.491-.107-.878-.291-1.162-.552-.283-.26-.425-.652-.425-1.173v-3.036c0-1.395.207-2.354.62-2.875.415-.521 1.028-.782 1.84-.782.614 0 1.066.092 1.358.276h.115V12.58h-.345c-1.058 0-1.91.452-2.553 1.357-.644.905-1.005 2.338-1.081 4.301h-.138V12.58l-5.313 1.587v.115c.398.123.686.353.862.69.176.337.265.813.265 1.426v6.762c0 .828-.376 1.403-1.127 1.725V25h7.084zm8.356.345c1.089 0 2.101-.364 3.036-1.092.936-.729 1.541-1.898 1.817-3.508l-.184-.046c-.306.43-.674.74-1.104.931-.429.192-.935.288-1.518.288-1.042 0-1.89-.334-2.541-1-.652-.668-1.062-1.645-1.23-2.933h6.623c0-1.35-.245-2.426-.736-3.231-.49-.806-1.088-1.369-1.794-1.691a5.258 5.258 0 00-2.208-.483 4.758 4.758 0 00-2.771.851c-.82.567-1.465 1.353-1.932 2.358-.468 1.004-.702 2.142-.702 3.415 0 1.288.246 2.396.736 3.323.491.928 1.139 1.63 1.944 2.105.805.475 1.66.713 2.564.713zm1.058-8.073h-2.852a6.45 6.45 0 01-.023-.644c0-1.043.127-1.851.38-2.427.253-.575.617-.862 1.092-.862.476 0 .828.291 1.058.874.23.583.345 1.602.345 3.059zm10.312 8.073c1.089 0 2.1-.364 3.036-1.092.935-.729 1.541-1.898 1.817-3.508l-.184-.046c-.307.43-.675.74-1.104.931-.43.192-.935.288-1.518.288-1.043 0-1.89-.334-2.541-1-.652-.668-1.062-1.645-1.231-2.933h6.624c0-1.35-.245-2.426-.736-3.231-.49-.806-1.089-1.369-1.794-1.691a5.258 5.258 0 00-2.208-.483 4.758 4.758 0 00-2.772.851c-.82.567-1.464 1.353-1.931 2.358-.468 1.004-.702 2.142-.702 3.415 0 1.288.245 2.396.736 3.323.49.928 1.138 1.63 1.944 2.105.804.475 1.66.713 2.564.713zm1.058-8.073h-2.852a6.45 6.45 0 01-.023-.644c0-1.043.126-1.851.38-2.427.252-.575.617-.862 1.092-.862.475 0 .828.291 1.058.874.23.583.345 1.602.345 3.059zM91.942 25v-.115a.951.951 0 01-.518-.518c-.1-.237-.15-.563-.15-.977v-8.303a1.316 1.316 0 011.128-.575c.337 0 .598.119.782.356.184.238.276.587.276 1.047v7.475c0 .414-.05.74-.15.977a.951.951 0 01-.517.518V25h6.164v-.115c-.752-.322-1.127-.897-1.127-1.725v-7.245c0-1.058-.292-1.878-.874-2.461-.583-.583-1.403-.874-2.461-.874-.782 0-1.453.18-2.013.54-.56.36-.962.878-1.207 1.553V12.58l-5.497 1.564v.115c.414.123.705.322.874.598.168.276.253.69.253 1.242v7.061c0 .828-.376 1.403-1.127 1.725V25h6.164zm14.52 0v-.115c-.751-.322-1.127-.897-1.127-1.725V8.21l-5.497 1.679v.115c.399.138.687.349.863.633.176.283.264.647.264 1.092V23.16c0 .828-.375 1.403-1.127 1.725V25h6.624zm4.194-12.604c.644 0 1.184-.219 1.621-.655.438-.438.656-.97.656-1.599s-.219-1.165-.656-1.61c-.436-.445-.977-.667-1.621-.667s-1.184.222-1.622.667a2.213 2.213 0 00-.655 1.61c0 .629.218 1.162.655 1.599.438.437.978.655 1.622.655zM114.083 25v-.115c-.751-.322-1.127-.897-1.127-1.725V12.58l-5.497 1.564v.115c.414.123.705.322.874.598.169.276.253.69.253 1.242v7.061c0 .828-.376 1.403-1.127 1.725V25h6.624zm5.39.345c1.104 0 2.035-.222 2.794-.667.76-.445 1.33-1.024 1.714-1.736a4.76 4.76 0 00.575-2.289c0-1.487-.713-2.568-2.14-3.243l-3.38-1.564c-.322-.153-.564-.345-.725-.575a1.228 1.228 0 01-.241-.713c0-.307.122-.56.368-.759.245-.2.628-.299 1.15-.299.69 0 1.36.226 2.012.678.652.453 1.185 1.246 1.599 2.381l.138.023 1.426-2.668a6.45 6.45 0 00-2.001-1 7.753 7.753 0 00-2.254-.334c-1.15 0-2.112.215-2.887.644-.774.43-1.345.97-1.713 1.621-.368.652-.552 1.315-.552 1.99 0 1.564.751 2.699 2.254 3.404l3.565 1.656c.536.23.805.613.805 1.15 0 .353-.13.655-.391.908s-.683.38-1.265.38c-.859 0-1.66-.356-2.404-1.07-.743-.713-1.261-1.59-1.552-2.633l-.138-.023-1.38 3.105a7.115 7.115 0 002.127 1.196 7.278 7.278 0 002.496.437zm10.45 0c1.119 0 2.039-.33 2.76-.989a5.328 5.328 0 001.517-2.415l-.207-.069a2.027 2.027 0 01-.586.828c-.269.23-.61.345-1.024.345-.398 0-.705-.146-.92-.437-.214-.291-.322-.69-.322-1.196v-7.866h2.116v-.575h-2.116V8.946h-.023c-.506.445-1.487 1.257-2.944 2.438-1.441 1.165-2.284 1.855-2.53 2.07v.115h1.127v8.464c0 .997.265 1.798.794 2.403.529.606 1.315.909 2.357.909z"/></g></g></g></g></g></svg>