<?xml version="1.0" encoding="utf-8"?>
<!-- Generator: Adobe Illustrator 25.4.1, SVG Export Plug-In . SVG Version: 6.00 Build 0)  -->
<svg version="1.1" id="Livello_1" xmlns="http://www.w3.org/2000/svg" xmlns:xlink="http://www.w3.org/1999/xlink" x="0px" y="0px"
	 viewBox="0 0 498 595.3" style="enable-background:new 0 0 498 595.3;" xml:space="preserve">
<style type="text/css">
	.st0{fill:none;stroke:#F09C96;stroke-width:4;stroke-miterlimit:10;}
</style>
<path class="st0" d="M168.4,23.7c-34.9,38.1-69,75.3-99.5,117.5C46.5,172,24.5,207.7,12.2,244c-2.5,7.4-17.6,42.5-5.8,48.6
	c14.9,7.7,47-36.5,53.6-44.1c33.7-38.9,66.8-78.3,99.1-118.4c6.9-8.5,100.7-110.7,89.7-119.8c-3.8-3.1-18.6,8.1-20.8,9.6
	c-17.5,11.6-32.4,26.8-46.9,41.9c-40.8,42.3-77.5,87.6-107.1,138.6c-11.8,20.3-23.1,41.6-31.8,63.5C37.9,275,31.8,290,31,302.2
	c-1.3,21.3,19.8,10.3,30,3.2c36.7-25.3,67.7-64.7,95.9-98.7C191.6,165,228.4,125.1,263,83.5c9.9-11.9,19.8-24,28.6-36.7
	c1.5-2.1,8.8-11.3,7.2-14.5c-6.3-12.7-65.4,45.1-69.4,49c-42.8,42.7-78,92.7-107.6,145.3c-23.3,41.4-49.5,87-57.5,134.6
	c-2.6,15.4-0.8,30.2,18,21.7c17-7.7,30.4-23.1,42.7-36.5c22.4-24.4,43.8-49.9,65-75.4c37.7-45.4,76.9-89.6,116-133.8
	c13.7-15.5,27.7-30.7,41.3-46.2c3.1-3.5,15.6-15.2,14.2-21.1c-3-12.4-46.6,20.1-50.7,23.1c-52.2,39-93.8,95-127.6,150.4
	c-26,42.6-52.5,92-63.3,141.2c-1.8,8.3-15.3,50,5.7,44c12.9-3.6,26.3-22.1,34.6-31.5c18-20.4,35.2-41.7,52.4-62.8
	c42.3-52.1,84.9-103.9,128.2-155.2c17.4-20.6,35.2-40.8,52.8-61.1c8.2-9.5,19.3-19.1,25.5-30.1c10.7-19-18-1.2-23.2,2.1
	c-48.4,31.1-88,75.8-123,120.9c-41.4,53.4-77.5,113-100.7,176.6c-4.1,11.3-29.3,67.9-5.5,73.2c11.5,2.5,27-11.2,34.5-17.8
	c25.5-22.3,47-50,67.9-76.5c43.3-54.9,85.7-110.4,132.8-162c14.4-15.8,28.9-31.5,43.3-47.2c4.6-5,11.8-11.1,11.9-18.4
	c-4.1-0.9-6.6,0.9-10.4,2.8c-17,8.4-32.9,24.1-46.2,37.3c-38.8,38.6-71.7,80.6-101.6,126.3c-27,41.3-51.9,86.3-67.8,133.2
	c-3.5,10.2-19.7,48.6-7.6,58.8c13.4,11.2,42.5-19.6,50.1-26.8c36.6-34.8,68.3-75.8,100.7-114.4c30-35.6,61.7-70.1,94.8-103
	c8.9-8.8,22.4-17.8,26.8-29.9c-12.7-3-37.8,22.9-46.3,30c-38.4,32-72.1,68.4-103.9,106.8c-30.9,37.3-59,79.2-78.9,123.6
	c-6.3,14-18.8,37.4-12.8,53.7c15.7,42.6,103.1-56,112.6-66.6c26.8-29.8,54.1-59.1,81.5-88.3c6.1-6.5,28-23.6,27.1-33.4
	c-13.3,1.9-27.7,17.4-37.5,25.4c-30.5,24.9-58.2,54.1-82.9,84.6c-20.7,25.6-40.2,52.3-54.6,82.2c-3.3,6.8-14.4,24.9-8,32.8
	c16.3,20,69.2-33.2,78.5-42.4c16.6-16.5,33.2-33.1,48.3-51.1c2.9-3.5,13.8-13,12.1-17.8c-7.3,0.9-14.2,8.6-19.4,13.3
	c-17.7,16.3-32,35.6-44.3,56.2c-6.9,11.5-16.5,26.5-17.6,40.4c-0.7,8.8,2.6,17.1,12.5,11.8"/>
</svg>
